<svg width="82" height="82" viewBox="0 0 32 32" fill="none" xmlns="http://www.w3.org/2000/svg">
<path d="M22.1923 10H9.80769C9.59348 10 9.38805 10.0862 9.23658 10.2397C9.08511 10.3931 9.00001 10.6012 9 10.8182V21.1818C9.00001 21.3988 9.08511 21.6069 9.23658 21.7603C9.38805 21.9138 9.59348 22 9.80769 22H22.1923C22.4065 22 22.612 21.9138 22.7634 21.7603C22.9149 21.6069 23 21.3988 23 21.1818V10.8182C23 10.6012 22.9149 10.3931 22.7634 10.2397C22.612 10.0862 22.4065 10 22.1923 10V10ZM21.3846 17.3636L18.8031 14.5109C18.7542 14.4562 18.6949 14.4121 18.6286 14.3815C18.5624 14.3508 18.4907 14.3342 18.4179 14.3326C18.3451 14.331 18.2727 14.3445 18.2052 14.3722C18.1378 14.3999 18.0766 14.4412 18.0254 14.4937L15.146 17.4105L18.0613 20.3636H16.5385L13.9577 17.7493C13.8567 17.647 13.7197 17.5896 13.5769 17.5896C13.4341 17.5896 13.2972 17.647 13.1962 17.7493L10.6154 20.3636V11.6364H21.3846V17.3636ZM11.7462 14.0909C11.7462 13.832 11.8219 13.5789 11.9639 13.3636C12.1059 13.1483 12.3078 12.9805 12.5439 12.8815C12.7801 12.7824 13.0399 12.7565 13.2906 12.807C13.5413 12.8575 13.7715 12.9822 13.9523 13.1652C14.133 13.3483 14.2561 13.5816 14.3059 13.8355C14.3558 14.0895 14.3302 14.3527 14.2324 14.5919C14.1346 14.8311 13.9689 15.0355 13.7564 15.1794C13.5439 15.3232 13.2941 15.4 13.0385 15.4C12.6957 15.4 12.367 15.2621 12.1247 15.0166C11.8823 14.7711 11.7462 14.4381 11.7462 14.0909V14.0909Z" fill="#B5B5B5"/>
</svg>
